<?xml version="1.0" standalone="no"?>
<!DOCTYPE svg PUBLIC "-//W3C//DTD SVG 20010904//EN"
 "http://www.w3.org/TR/2001/REC-SVG-20010904/DTD/svg10.dtd">
<svg version="1.0" xmlns="http://www.w3.org/2000/svg"
 width="1024.000000pt" height="1024.000000pt" viewBox="0 0 1024.000000 1024.000000"
 preserveAspectRatio="xMidYMid meet">

<g transform="translate(0.000000,1024.000000) scale(0.100000,-0.100000)"
fill="#000000" stroke="none">
<path d="M4950 8910 c-867 -67 -1640 -522 -2116 -1245 -609 -924 -602 -2146
17 -3053 47 -70 504 -766 1015 -1547 596 -912 948 -1441 983 -1478 126 -134
318 -170 489 -92 82 37 135 86 202 183 55 81 1710 2614 1917 2936 317 492 463
976 463 1536 0 616 -185 1171 -557 1669 -114 152 -382 420 -533 533 -338 252
-687 412 -1090 501 -234 52 -554 75 -790 57z m415 -1154 c22 -3 50 -6 62 -6
12 0 25 -5 28 -10 4 -6 10 -8 15 -5 12 7 110 -17 110 -27 0 -5 4 -7 8 -4 11 7
112 -25 112 -36 0 -4 6 -5 14 -2 7 3 20 -2 29 -10 8 -8 17 -12 21 -9 3 4 6 1
6 -6 0 -7 4 -10 10 -6 12 7 130 -52 130 -66 0 -5 4 -8 10 -4 5 3 18 -3 29 -14
11 -11 21 -17 24 -15 10 11 207 -149 287 -232 84 -87 150 -171 149 -187 0 -5
8 -15 18 -23 10 -7 15 -14 11 -14 -5 0 1 -9 12 -20 12 -12 18 -26 14 -32 -4
-6 -3 -8 4 -4 10 6 28 -30 24 -46 -1 -5 3 -8 9 -8 5 0 7 -4 4 -10 -3 -5 -1
-10 5 -10 6 0 8 -4 5 -10 -3 -5 -1 -10 5 -10 6 0 8 -4 5 -10 -3 -5 -1 -10 5
-10 6 0 8 -4 5 -10 -3 -5 -1 -10 5 -10 6 0 8 -4 5 -10 -3 -5 -2 -10 3 -10 12
0 34 -49 27 -61 -4 -5 -2 -9 3 -9 9 0 25 -40 26 -65 1 -5 4 -12 7 -15 6 -5 46
-155 48 -180 1 -8 4 -31 7 -50 20 -117 25 -316 11 -420 -4 -30 -7 -67 -7 -82
0 -15 -4 -29 -9 -33 -6 -3 -8 -12 -4 -20 3 -9 0 -21 -6 -29 -6 -7 -8 -16 -5
-19 3 -3 2 -11 -2 -18 -4 -7 -9 -27 -11 -44 -2 -16 -8 -31 -13 -33 -5 -2 -6
-10 -3 -18 3 -8 0 -14 -6 -14 -6 0 -8 -7 -5 -15 4 -8 1 -15 -6 -15 -6 0 -9 -4
-6 -9 7 -11 -24 -91 -36 -91 -5 0 -7 -4 -4 -8 7 -12 -51 -132 -64 -132 -6 0
-9 -4 -5 -9 8 -14 -104 -175 -179 -259 -83 -92 -206 -203 -217 -196 -5 3 -9 1
-9 -4 0 -11 -61 -60 -80 -64 -8 -2 -22 -11 -32 -21 -10 -10 -24 -15 -30 -11
-6 4 -8 3 -4 -4 6 -10 -30 -28 -46 -24 -5 1 -8 -3 -8 -9 0 -5 -4 -7 -10 -4 -5
3 -10 1 -10 -5 0 -6 -4 -8 -10 -5 -5 3 -10 1 -10 -5 0 -6 -4 -8 -10 -5 -5 3
-10 1 -10 -5 0 -6 -4 -8 -10 -5 -5 3 -10 2 -10 -3 0 -10 -50 -35 -57 -28 -3 3
-12 -2 -20 -10 -9 -8 -22 -13 -29 -10 -8 3 -14 1 -14 -5 0 -6 -7 -9 -15 -5 -8
3 -15 1 -15 -5 0 -6 -7 -9 -15 -5 -8 3 -15 1 -15 -5 0 -6 -7 -9 -15 -5 -8 3
-15 2 -15 -3 0 -7 -170 -46 -225 -52 -55 -5 -405 -2 -440 4 -22 4 -47 7 -55 8
-8 0 -22 3 -30 6 -8 3 -30 7 -49 9 -19 2 -37 7 -40 11 -3 4 -19 9 -36 11 -16
2 -31 7 -33 12 -2 5 -10 6 -18 3 -8 -3 -14 0 -14 6 0 6 -6 8 -14 5 -7 -3 -20
1 -27 9 -8 7 -19 12 -25 10 -7 -2 -18 3 -27 11 -8 8 -17 13 -20 10 -8 -8 -147
65 -147 77 0 5 -4 8 -10 4 -5 -3 -18 3 -29 14 -11 11 -21 17 -24 15 -10 -10
-177 124 -263 210 -86 86 -220 253 -210 263 2 3 -4 13 -15 24 -11 11 -17 24
-14 29 4 6 1 10 -4 10 -12 0 -67 104 -73 135 -1 11 -9 26 -16 34 -7 7 -11 20
-8 27 3 8 2 14 -3 14 -8 0 -43 100 -46 130 0 9 -4 21 -9 28 -4 6 -5 16 -1 21
3 5 1 12 -4 15 -8 5 -21 71 -32 156 -3 32 -4 367 0 400 5 45 22 135 28 150 3
8 7 28 9 44 3 17 8 32 12 35 4 4 7 11 7 16 1 26 18 75 25 75 5 0 7 7 4 15 -4
8 -1 15 7 15 7 0 10 3 6 6 -8 8 13 64 25 64 5 0 6 5 3 10 -3 6 -1 10 5 10 6 0
8 4 5 10 -7 12 22 70 36 70 6 0 7 5 4 10 -3 6 -1 10 4 10 6 0 10 3 9 8 -4 16
14 52 24 46 6 -4 8 -3 5 3 -7 11 44 90 75 116 13 10 16 15 8 11 -27 -15 53 80
145 171 92 91 245 208 271 208 8 0 14 4 14 8 0 12 56 40 64 32 3 -4 6 -1 6 6
0 7 5 9 10 6 6 -3 10 -1 10 5 0 6 5 8 10 5 6 -3 10 -1 10 5 0 6 5 8 10 5 6 -3
10 -1 10 5 0 6 5 8 10 5 6 -3 10 -2 10 3 0 10 50 35 57 28 3 -3 12 2 20 10 9
8 22 13 29 10 8 -3 14 -1 14 5 0 6 7 9 15 5 8 -3 15 -1 15 5 0 6 6 9 14 6 8
-3 16 -2 18 4 2 5 18 10 36 12 17 1 32 6 32 11 0 4 9 6 20 3 11 -3 22 -2 25 3
6 9 132 33 143 27 4 -3 16 -1 27 3 22 9 327 6 390 -4z"/>
<path d="M4060 7315 c-24 -25 -42 -45 -39 -45 3 0 25 20 49 45 24 25 42 45 39
45 -3 0 -25 -20 -49 -45z"/>
<path d="M6290 7256 c0 -2 8 -10 18 -17 15 -13 16 -12 3 4 -13 16 -21 21 -21
13z"/>
</g>
</svg>
